<svg width="32" height="32" viewBox="0 0 32 32" fill="none" xmlns="http://www.w3.org/2000/svg">
<g id="Notifications_unread">
<path id="Vector" d="M5.13379 25.5327V23.2617H7.72869V13.3276C7.72869 11.4147 8.28799 9.6951 9.40659 8.16867C10.5252 6.64227 12.0111 5.68221 13.8642 5.28847V4.60297C13.8642 4.00755 14.0718 3.50145 14.4871 3.08467C14.9023 2.66787 15.4065 2.45947 15.9997 2.45947C16.5929 2.45947 17.0971 2.66787 17.5124 3.08467C17.9276 3.50145 18.1352 4.00755 18.1352 4.60297V5.28847C19.9884 5.67687 21.4756 6.63521 22.5968 8.16347C23.7181 9.69174 24.2787 11.4131 24.2787 13.3276V23.2617H26.8737V25.5327H5.13379ZM16.0037 29.6044C15.2521 29.6044 14.6084 29.3363 14.0728 28.8C13.5371 28.2637 13.2693 27.6191 13.2693 26.866H18.7381C18.7381 27.6206 18.4698 28.2657 17.933 28.8012C17.3963 29.3367 16.7532 29.6045 16.0037 29.6044ZM9.99972 23.2617H21.9997V13.3276C21.9997 11.6663 21.4164 10.2509 20.2497 9.08161C19.0831 7.91227 17.6664 7.32761 15.9997 7.32761C14.3331 7.32761 12.9164 7.91227 11.7497 9.08161C10.5831 10.2509 9.99972 11.6663 9.99972 13.3276V23.2617Z" fill="white"/>
<path id="new notifications" d="M30 8C30 11.3137 27.3137 14 24 14C20.6863 14 18 11.3137 18 8C18 4.68629 20.6863 2 24 2C27.3137 2 30 4.68629 30 8Z" fill="#DC1500"/>
</g>
</svg>
