<svg width="33" height="32" viewBox="0 0 33 32" fill="none" xmlns="http://www.w3.org/2000/svg">
<g id="icon/add_newROW-icon_Default2" clip-path="url(#clip0_1482_439)">
<path id="Vector" d="M15.5525 22.7146H17.6482V17.1812H23.2149V15.0856H17.6482V9.28557H15.5525V15.0856H9.78587V17.1812H15.5525V22.7146ZM16.5103 29.5327C14.6392 29.5327 12.8832 29.1785 11.2423 28.4701C9.60144 27.7616 8.16634 26.7928 6.93701 25.5634C5.70767 24.3341 4.7388 22.8985 4.03037 21.2567C3.32197 19.615 2.96777 17.8575 2.96777 15.9845C2.96777 14.1115 3.32197 12.3537 4.03037 10.7112C4.7388 9.06864 5.70725 7.63812 6.93574 6.41961C8.16425 5.20112 9.5996 4.23647 11.2418 3.52567C12.884 2.81487 14.6418 2.45947 16.5153 2.45947C18.3888 2.45947 20.1471 2.81467 21.7902 3.52507C23.4334 4.23545 24.864 5.19954 26.0821 6.41734C27.3002 7.63514 28.2645 9.06717 28.9751 10.7134C29.6857 12.3597 30.041 14.119 30.041 15.9912C30.041 17.8631 29.6856 19.6194 28.9748 21.2602C28.264 22.901 27.2993 24.3337 26.0808 25.5583C24.8623 26.7829 23.4304 27.7514 21.7851 28.4639C20.1397 29.1764 18.3815 29.5327 16.5103 29.5327ZM16.517 27.2617C19.6402 27.2617 22.2952 26.1644 24.4819 23.9699C26.6686 21.7754 27.762 19.1133 27.762 15.9834C27.762 12.8602 26.6707 10.2053 24.4881 8.01854C22.3056 5.83183 19.6417 4.73847 16.4964 4.73847C13.3816 4.73847 10.7267 5.82975 8.53154 8.01231C6.33636 10.1949 5.23877 12.8588 5.23877 16.0041C5.23877 19.1188 6.33602 21.7738 8.53051 23.9689C10.725 26.1641 13.3872 27.2617 16.517 27.2617Z" fill="white"/>
</g>
<defs>
<clipPath id="clip0_1482_439">
<rect width="32" height="32" fill="white" transform="translate(0.5)"/>
</clipPath>
</defs>
</svg>
