<svg width="32" height="42" viewBox="0 0 32 42" fill="none" xmlns="http://www.w3.org/2000/svg">
<g id="Vector">
<path d="M29.5421 18.8154V13.5505L16.0047 3.87391L2.4678 13.5505V18.8154H0.831697V12.6887L5.57807 9.2956V4.3998H7.21394V8.12568L16.0047 1.84216L31.1782 12.6887V18.8154H29.5421Z" fill="#F3F0ED"/>
<path d="M0.831699 29.4167V23.29H2.4678V28.5549L16.0047 38.2315L29.5421 28.5549V23.29H31.1782V29.4167L16.0047 40.2632L0.831699 29.4167Z" fill="#F3F0ED"/>
<path d="M12.0675 27.0481V16.4664H19.942V27.0481H12.0675ZM13.7036 25.3866H18.3059V18.1277H13.7036V25.3866Z" fill="#F3F0ED"/>
<path fill-rule="evenodd" clip-rule="evenodd" d="M28.8354 13.9214V19.5312H31.8849V12.3177L16.0047 0.966064L7.92063 6.74446V3.68401H4.87138V8.92468L0.125 12.3177V19.5312H3.1745V13.9214L16.0047 4.75L28.8354 13.9214ZM7.21394 4.3998V8.12568L16.0047 1.84216L31.1782 12.6887V18.8154H29.5421V13.5505L16.0047 3.87391L2.4678 13.5505V18.8154H0.831697V12.6887L5.57807 9.2956V4.3998H7.21394ZM0.125001 22.5742V29.7876L16.0047 41.1393L31.8849 29.7876V22.5742H28.8354V28.1839L16.0047 37.3554L3.1745 28.1839V22.5742H0.125001ZM16.0047 38.2315L29.5421 28.5549V23.29H31.1782V29.4167L16.0047 40.2632L0.831699 29.4167V23.29H2.4678V28.5549L16.0047 38.2315ZM11.3608 15.7506V27.7639H20.6487V15.7506H11.3608ZM19.942 27.0481H12.0675V16.4664H19.942V27.0481Z" fill="#F3F0ED"/>
</g>
</svg>
