<svg width="139" height="18" viewBox="0 0 139 18" fill="none" xmlns="http://www.w3.org/2000/svg">
<g id="Frame" clip-path="url(#clip0_1451_220)">
<g id="Group">
<path id="id-D6z1nYkh9" d="M5.36257 16.7779V4.02314H0.396484V1.05902H13.9202V4.02314H8.95411V16.7779H5.36257ZM19.4184 13.8587H27.8651V16.7779H15.849V1.05902H27.5769V3.97823H19.4184V7.39147H26.6236V10.2209H19.4184V13.8587ZM38.1077 17.0473C36.5262 17.0473 35.0962 16.6993 33.8178 16.0032C32.5393 15.307 31.5343 14.3414 30.8027 13.1064C30.071 11.8713 29.7052 10.4754 29.7052 8.91844C29.7052 7.36153 30.071 5.96554 30.8027 4.73049C31.5343 3.49544 32.5393 2.52985 33.8178 1.83373C35.0962 1.13761 36.5336 0.789551 38.1298 0.789551C39.4748 0.789551 40.6905 1.02908 41.7768 1.50813C42.8631 1.98718 43.7758 2.67581 44.5148 3.57403L42.2091 5.72976C41.1597 4.50219 39.8591 3.88841 38.3072 3.88841C37.3465 3.88841 36.4893 4.10174 35.7355 4.52839C34.9817 4.95505 34.3942 5.55012 33.973 6.3136C33.5517 7.07709 33.3411 7.94537 33.3411 8.91844C33.3411 9.89151 33.5517 10.7598 33.973 11.5233C34.3942 12.2868 34.9817 12.8818 35.7355 13.3085C36.4893 13.7351 37.3465 13.9485 38.3072 13.9485C39.8591 13.9485 41.1597 13.3272 42.2091 12.0847L44.5148 14.2404C43.7758 15.1536 42.8594 15.8497 41.7657 16.3288C40.672 16.8078 39.4527 17.0473 38.1077 17.0473ZM57.5729 1.05902H61.1645V16.7779H57.5729V10.3331H50.5229V16.7779H46.9313V1.05902H50.5229V7.25674H57.5729V1.05902ZM75.5307 1.05902H79.0779V16.7779H76.1292L68.3919 7.23428V16.7779H64.8447V1.05902H67.8155L75.5307 10.6026V1.05902ZM82.7581 16.7779V1.05902H86.3496V16.7779H82.7581ZM100.649 16.7779L95.6832 10.6026L93.5992 12.8032V16.7779H90.0298V1.05902H93.5992V8.40197L100.472 1.05902H104.463L98.0332 8.06513L104.839 16.7779H100.649ZM113.397 17.0473C111.786 17.0473 110.334 16.6955 109.041 15.9919C107.747 15.2883 106.735 14.319 106.003 13.0839C105.272 11.8489 104.906 10.4604 104.906 8.91844C104.906 7.3765 105.272 5.988 106.003 4.75295C106.735 3.51789 107.747 2.54856 109.041 1.84496C110.334 1.14135 111.786 0.789551 113.397 0.789551C115.008 0.789551 116.456 1.14135 117.742 1.84496C119.028 2.54856 120.041 3.51789 120.78 4.75295C121.519 5.988 121.888 7.3765 121.888 8.91844C121.888 10.4604 121.519 11.8489 120.78 13.0839C120.041 14.319 119.028 15.2883 117.742 15.9919C116.456 16.6955 115.008 17.0473 113.397 17.0473ZM113.397 13.9485C114.313 13.9485 115.141 13.7351 115.88 13.3085C116.619 12.8818 117.199 12.2868 117.62 11.5233C118.042 10.7598 118.252 9.89151 118.252 8.91844C118.252 7.94537 118.042 7.07709 117.62 6.3136C117.199 5.55012 116.619 4.95505 115.88 4.52839C115.141 4.10174 114.313 3.88841 113.397 3.88841C112.481 3.88841 111.653 4.10174 110.914 4.52839C110.175 4.95505 109.595 5.55012 109.174 6.3136C108.752 7.07709 108.542 7.94537 108.542 8.91844C108.542 9.89151 108.752 10.7598 109.174 11.5233C109.595 12.2868 110.175 12.8818 110.914 13.3085C111.653 13.7351 112.481 13.9485 113.397 13.9485ZM135.279 1.05902H138.826V16.7779H135.877L128.14 7.23428V16.7779H124.593V1.05902H127.564L135.279 10.6026V1.05902Z" fill="#F3F0ED"/>
</g>
</g>
<defs>
<clipPath id="clip0_1451_220">
<rect width="138.43" height="16.2578" fill="white" transform="translate(0.396484 0.789551)"/>
</clipPath>
</defs>
</svg>
