<svg width="32" height="32" viewBox="0 0 32 32" fill="none" xmlns="http://www.w3.org/2000/svg">
<g id="icon/menu-dots-vert">
<path id="Fill" fill-rule="evenodd" clip-rule="evenodd" d="M16.0007 10.6666C17.4673 10.6666 18.6673 9.46659 18.6673 7.99992C18.6673 6.53325 17.4673 5.33325 16.0007 5.33325C14.534 5.33325 13.334 6.53325 13.334 7.99992C13.334 9.46659 14.534 10.6666 16.0007 10.6666ZM16.0007 13.3333C14.534 13.3333 13.334 14.5333 13.334 15.9999C13.334 17.4666 14.534 18.6666 16.0007 18.6666C17.4673 18.6666 18.6673 17.4666 18.6673 15.9999C18.6673 14.5333 17.4673 13.3333 16.0007 13.3333ZM16.0007 21.3333C14.534 21.3333 13.334 22.5333 13.334 23.9999C13.334 25.4666 14.534 26.6666 16.0007 26.6666C17.4673 26.6666 18.6673 25.4666 18.6673 23.9999C18.6673 22.5333 17.4673 21.3333 16.0007 21.3333Z" fill="white"/>
</g>
</svg>
